<?xml version="1.0" ?>
<!DOCTYPE svg  PUBLIC '-//W3C//DTD SVG 1.1//EN'  'http://www.w3.org/Graphics/SVG/1.1/DTD/svg11.dtd'>
<!-- Uploaded to: SVG Repo, www.svgrepo.com, Generator: SVG Repo Mixer Tools -->
<svg fill="#000000" width="800px" height="800px" viewBox="0 0 512 512" version="1.1" xml:space="preserve" xmlns="http://www.w3.org/2000/svg" xmlns:xlink="http://www.w3.org/1999/xlink">
<g id="_x35_05_x2C__Architecture_x2C__blueprint_x2C__circuit_x2C__design_x2C__engineering">
<g>
<path d="M463.048,181.396h3.559v-16.369h-3.559V181.396z M472.076,181.396h13.923    v-16.369h-13.923V181.396z M352.91,165.027c0,13.566,0,2.824,0,16.369c34.883,0,69.777,0,104.667,0v-16.369H352.91z     M181.183,326.602c0-1.512,1.223-2.735,2.724-2.735c1.513,0,2.735,1.224,2.735,2.735v17.836h14.691v-28.822H26.001v28.822h14.234    v-17.836c0-1.512,1.223-2.735,2.736-2.735c1.5,0,2.735,1.224,2.735,2.735v17.836h14.667v-17.836c0-1.512,1.225-2.735,2.735-2.735    c1.502,0,2.725,1.224,2.725,2.735v17.836h14.668v-17.836c0-1.512,1.234-2.735,2.736-2.735c1.511,0,2.734,1.224,2.734,2.735v17.836    h14.668v-17.836c0-1.512,1.223-2.735,2.736-2.735c1.502,0,2.735,1.224,2.735,2.735v17.836c4.882,0,9.774,0,14.668,0v-17.836    c0-1.512,1.223-2.735,2.736-2.735c1.5,0,2.734,1.224,2.734,2.735v17.836h14.657v-17.836c0-1.512,1.234-2.735,2.736-2.735    c1.513,0,2.736,1.224,2.736,2.735v17.836h14.666v-17.836c0-1.512,1.223-2.735,2.736-2.735c1.502,0,2.725,1.224,2.725,2.735v17.836    h14.678V326.602z M26.001,300.425v9.741h175.331v-9.741C142.885,300.425,84.438,300.425,26.001,300.425z M407.298,186.867v158.615    c0,1.514-1.225,2.736-2.735,2.736c-65.987,0-131.985,0-197.981,0c-0.413,0.979-1.379,1.689-2.513,1.689    c-30.014,0-60.016,0-90.029,0v8.874h313.286V186.867H407.298z M331.926,178.416c0.134,0.045,0.268,0.111,0.389,0.178l5.928,2.803    l0,0h9.196v-16.369h-9.196l0,0l-17.248,8.184L331.926,178.416z M144.931,178.238c57.968,0,115.936,0,173.896,0l-5.36-2.559    c-0.557-0.268-1.023-0.711-1.301-1.311c-0.066-0.113-0.112-0.246-0.146-0.379l0,0L312,173.923l0,0l-0.013-0.044l-0.011-0.023    v-0.021l-0.023-0.066v-0.045l0,0l-0.01-0.044l-0.011-0.089l0,0l-0.013-0.022v-0.044l0,0l-0.01-0.045v-0.022v-0.022v-0.021v-0.022    v-0.022v-0.045l0,0v-0.043v-0.023v-0.022v-0.022v-0.021v-0.023v-0.043v-0.066l0,0v-0.067l0,0l0.01-0.066l0,0v-0.067h0.013v-0.045    v-0.021l0.011-0.045l0.01-0.021v-0.045h0.013v-0.066h0.011l0.011-0.066l0,0l0.013-0.068h0.01l0.011-0.066l0,0l0.022-0.044v-0.022    l0.023-0.044l0,0l0.021-0.067l0,0l0.022-0.066l0,0l0.023-0.045V172.1l0.033-0.045l0,0l0.033-0.066l0,0l0.021-0.045v-0.021    l0.033-0.045l0,0l0.033-0.066l0,0l0.033-0.045l0,0l0.033-0.066l0,0l0.046-0.045l0,0l0.033-0.045v-0.021l0.034-0.045h0.01    l0.033-0.043l0,0l0.044-0.067l0,0l0.046-0.046l0,0l0.044-0.043l0,0l0.044-0.045l0,0l0.045-0.045l0,0l0.055-0.044l0.057-0.045    l0.043-0.044l0.057-0.045l0.057-0.045l0.056-0.044l0.055-0.044l0.056-0.023l0.057-0.043l0.055-0.023l0.066-0.043l0.056-0.023    l0.067-0.044l22.818-10.831l0.044-0.021l0.033-0.023l0.033-0.021h0.044l0,0l0.035-0.022h0.011l0.033-0.022l0,0l0.033-0.021h0.011    l0.033-0.022l0,0h0.033h0.012l0.034-0.022h0.011l0.022-0.023h0.011h0.033h0.01l0.013-0.021h0.011h0.023l0.021-0.021h0.013h0.033    h0.01l0.023-0.023h0.021h0.022h0.022l0.021-0.021h0.022h0.022h0.021h0.012l0.033-0.022h0.012h0.033h0.01h0.033h0.013l0.021-0.022    h0.023h0.033h0.011h0.033l0,0h0.046l0,0l0.044-0.021l0,0h0.046l0,0h0.043l0,0h0.045l0,0h0.045h0.044h12.532h0.066h77.085v-11.232    c-104.429,0-208.857,0-313.286,0v105.374v0.089v41.166h28.157V180.974C142.196,179.461,143.429,178.238,144.931,178.238z     M349.162,342.748v-49.106c0-0.757,0.299-1.445,0.799-1.935l30.047-30.047v-38.297c0-1.513,1.224-2.736,2.736-2.736    c1.502,0,2.725,1.224,2.725,2.736v39.41c0,0.71-0.267,1.4-0.789,1.934l-30.058,30.047v47.994h47.205V186.867H350.24h-0.066    h-12.532l0,0h-0.033l0,0h-0.044h-0.033l0,0h-0.033h-0.046h-0.033h-0.034l-0.033-0.022h-0.043h-0.033h-0.034l-0.046-0.022h-0.033    h-0.033l-0.043-0.021h-0.034h-0.033l-0.033-0.022h-0.044l-0.033-0.022h-0.033l-0.033-0.022h-0.046l-0.034-0.022h-0.033    l-0.033-0.022h-0.043l-0.033-0.022l-0.034-0.021h-0.033l-0.033-0.022l-0.033-0.022l-6.138-2.913h-45.994v49.128    c0,0.757-0.301,1.445-0.801,1.936l-30.046,30.046v38.276c0,1.512-1.223,2.734-2.735,2.734c-1.5,0-2.736-1.223-2.736-2.734v-39.41    c0.012-0.712,0.269-1.401,0.802-1.936l30.047-30.046v-47.994h-23.465v39.72c0,1.514-1.223,2.736-2.723,2.736    c-1.513,0-2.736-1.223-2.736-2.736v-39.72h-32.659v39.72c0,1.514-1.235,2.736-2.736,2.736c-1.512,0-2.735-1.223-2.735-2.736    v-39.72h-24.309v47.994l30.046,30.046c0.534,0.534,0.8,1.224,0.8,1.936v39.41c0,1.512-1.233,2.734-2.736,2.734    c-1.513,0-2.735-1.223-2.735-2.734v-38.276L182.85,234.75c-0.5-0.49-0.8-1.179-0.8-1.936v-49.128h-34.383v111.267h56.401    c1.5,0,2.723,1.223,2.723,2.736c0,15.012,0,30.046,0,45.059h93.698v-39.721c0-1.49,1.234-2.713,2.736-2.713    c1.511,0,2.733,1.223,2.733,2.713v39.721h23.465v-47.994l-30.057-30.047c-0.523-0.533-0.79-1.224-0.79-1.934v-39.41    c0-1.513,1.223-2.736,2.724-2.736c1.513,0,2.735,1.224,2.735,2.736v38.297l30.047,30.047c0.5,0.489,0.8,1.178,0.8,1.935v49.106    H349.162z M354.399,198.231c0-1.513,1.224-2.735,2.735-2.735c1.5,0,2.736,1.223,2.736,2.735v36.407c0,0.557-0.18,1.09-0.467,1.513    l-15.701,27.177l-0.023,0.066h-0.011l-0.022,0.066l0,0l-0.044,0.045l0,0l-0.033,0.067l0,0l-0.034,0.044h-0.012l-0.033,0.045    l-0.011,0.021l-0.033,0.045l0,0l-0.033,0.045l-0.011,0.022l-0.033,0.022l-0.012,0.021l-0.034,0.045h-0.011l-0.033,0.045h-0.022    l-0.033,0.043l-0.011,0.023l-0.033,0.021l-0.013,0.022l-0.044,0.022l-0.01,0.021l-0.033,0.022l-0.013,0.022l-0.044,0.022h-0.011    l-0.033,0.044h-0.022l-0.045,0.045H342.9l-0.044,0.045l0,0l-0.056,0.021l0,0l-0.055,0.045h-0.012l-0.045,0.021l-0.01,0.023    l-0.057,0.021l0,0l-0.056,0.021l-0.011,0.023l-0.044,0.021H342.5l-0.054,0.022h-0.013l-0.044,0.022l-0.011,0.023h-0.045    l-0.023,0.021h-0.043l-0.023,0.022h-0.033l-0.033,0.023h-0.033l-0.033,0.021h-0.033l-0.034,0.021h-0.021h-0.013l-0.121,0.023    l-0.033,0.021h-0.033h-0.034h-0.021l-0.045,0.022H341.7h-0.044h-0.022h-0.044l-0.023,0.022h-0.043H341.5h-0.043h-0.023H341.4    h-0.023h-0.043h-0.023h-0.044h-0.022H341.2h-0.022h-0.045h-0.021h-0.045l-0.022-0.022H341h-0.022h-0.044h-0.023l-0.043-0.022    h-0.023h-0.033h-0.033l-0.033-0.021l-0.123-0.023h-0.011h-0.022l-0.033-0.021h-0.033l-0.033-0.021h-0.033l-0.034-0.023h-0.033    l-0.022-0.022h-0.033l-0.033-0.021h-0.034l-0.021-0.023l-0.046-0.022h-0.011l-0.057-0.022h-0.01l-0.044-0.021l-0.013-0.023    l-0.055-0.021l0,0l-0.056-0.021v-0.023l-0.066-0.021l0,0l-0.056-0.045l0,0l-0.055-0.021l0,0l-0.046-0.045h-0.011l-0.043-0.045    h-0.014l-0.043-0.044h-0.011l-0.033-0.022l-0.022-0.022l-0.033-0.022l-0.012-0.021l-0.045-0.022l-0.011-0.022l-0.033-0.021    l-0.013-0.023l-0.033-0.043h-0.021l-0.021-0.045h-0.023l-0.033-0.045l-0.011-0.021l-0.033-0.022l-0.011-0.022l-0.022-0.045h-0.011    l-0.033-0.045l-0.013-0.021l-0.033-0.045l0,0l-0.044-0.044l0,0l-0.033-0.067l0,0l-0.033-0.045l0,0l-0.033-0.066h-0.011    l-0.022-0.066l-15.702-27.177c-0.289-0.423-0.466-0.956-0.466-1.513v-36.407c0-1.513,1.232-2.735,2.734-2.735    c1.514,0,2.736,1.223,2.736,2.735v35.695l13.076,22.641l13.089-22.641V198.231z M74.697,373.928c-1.512,0-2.735-1.244-2.735-2.734    c0-1.512,1.223-2.736,2.735-2.736h256.027c1.512,0,2.735,1.225,2.735,2.736c0,1.49-1.224,2.734-2.735,2.734H74.697z     M224.618,385.96c-1.502,0-2.736-1.224-2.736-2.735c0-1.49,1.234-2.736,2.736-2.736h177.175c1.513,0,2.736,1.246,2.736,2.736    c0,1.512-1.224,2.735-2.736,2.735H224.618z M419.931,385.96c-1.513,0-2.735-1.224-2.735-2.735c0-1.49,1.223-2.736,2.735-2.736    h22.15c1.502,0,2.735,1.246,2.735,2.736c0,1.512-1.233,2.735-2.735,2.735H419.931z M53.458,385.604    c-1.502,0-2.725-1.224-2.725-2.735c0-1.513,1.223-2.736,2.725-2.736h83.956c1.513,0,2.735,1.224,2.735,2.736    c0,1.512-1.223,2.735-2.735,2.735H53.458z M111.303,142.854h290.311V126.04H88.33v124.923h20.238V145.589    C108.568,144.077,109.792,142.854,111.303,142.854z" style="fill-rule:evenodd;clip-rule:evenodd;"/>
</g>
</g>
<g id="Layer_1"/>
</svg>