<?xml version="1.0" encoding="iso-8859-1"?>
<!-- Uploaded to: SVG Repo, www.svgrepo.com, Generator: SVG Repo Mixer Tools -->
<!DOCTYPE svg PUBLIC "-//W3C//DTD SVG 1.1//EN" "http://www.w3.org/Graphics/SVG/1.1/DTD/svg11.dtd">
<svg fill="#000000" version="1.1" id="Capa_1" xmlns="http://www.w3.org/2000/svg" xmlns:xlink="http://www.w3.org/1999/xlink" 
	 width="800px" height="800px" viewBox="0 0 319.743 319.744"
	 xml:space="preserve">
<g>
	<g>
		<path d="M285.925,67.638H33.819C15.168,67.638,0,82.806,0,101.458v95.308v6.149v49.19h252.105h6.148h61.489V101.458
			C319.743,82.806,304.575,67.638,285.925,67.638z M6.149,101.458c0-15.256,12.415-27.67,27.67-27.67h218.286v79.936v6.148v36.894
			h-18.447H24.596H6.149V101.458z M30.745,215.212v-12.298H227.51v12.298H30.745z M141.425,221.361
			c0,6.148-5.515,12.298-12.298,12.298c-6.782,0-12.297-6.149-12.297-12.298H141.425z M6.149,245.957v-43.042h18.447v18.446h86.085
			c0,6.148,8.277,18.447,18.446,18.447c10.169,0,18.447-12.299,18.447-18.447h86.084v-18.446h18.447v43.042H6.149z M313.595,245.957
			h-55.341v-86.085h55.341V245.957z M313.595,153.723h-55.341V73.787h27.671c15.252,0,27.67,12.415,27.67,27.67V153.723z"/>
		<path d="M285.925,79.936h-21.521v55.34h43.042v-27.67C307.445,92.351,297.79,79.936,285.925,79.936z M301.297,129.127h-30.745
			V86.085h15.373c8.473,0,15.372,9.653,15.372,21.521V129.127z"/>
		<path d="M166.021,104.532H92.234v18.446h73.787V104.532z M159.872,116.83H98.383v-6.149h61.489V116.83z"/>
	</g>
</g>
</svg>