<?xml version="1.0" encoding="iso-8859-1"?>
<!-- Uploaded to: SVG Repo, www.svgrepo.com, Generator: SVG Repo Mixer Tools -->
<svg version="1.1" id="Capa_1" xmlns="http://www.w3.org/2000/svg" xmlns:xlink="http://www.w3.org/1999/xlink" 
	 viewBox="0 0 239.319 239.319" xml:space="preserve">
<g>
	<g>
		<rect x="27.195" y="119.659" style="fill:#010002;" width="146.855" height="76.147"/>
		<rect x="195.806" y="119.659" style="fill:#010002;" width="21.756" height="27.195"/>
		<path style="fill:#010002;" d="M0,92.464v92.464c0,6.01,4.868,10.878,10.878,10.878h10.878V116.94c0-1.501,1.218-2.72,2.72-2.72
			H176.77c1.501,0,2.72,1.218,2.72,2.72v78.866h48.952c6.01,0,10.878-4.868,10.878-10.878V92.464h-76.147H32.634H0z M190.367,116.94
			c0-1.501,1.218-2.72,2.72-2.72h27.195c1.501,0,2.72,1.218,2.72,2.72v32.634c0,1.501-1.218,2.72-2.72,2.72h-27.195
			c-1.501,0-2.72-1.218-2.72-2.72V116.94z"/>
		<rect x="32.634" y="43.513" style="fill:#010002;" width="130.538" height="38.073"/>
	</g>
</g>
</svg>